<svg width="210" height="35" viewBox="0 0 210 35" fill="none" xmlns="http://www.w3.org/2000/svg">
<g id="Layer 2">
<g id="Layer 1">
<path id="Vector" d="M17.4935 32.9797C14.592 32.9743 11.7507 32.1509 9.29563 30.604C6.84055 29.057 4.87103 26.8492 3.61298 24.2337C2.35493 21.6181 1.85929 18.7008 2.18291 15.8164C2.50653 12.9319 3.6363 10.1971 5.44265 7.92565C7.24899 5.65417 9.65876 3.938 12.3956 2.97397C15.1324 2.00994 18.0854 1.83709 20.9159 2.47526C23.7464 3.11342 26.3398 4.53674 28.3986 6.58199C30.4574 8.62723 31.8983 11.2116 32.556 14.0386C32.6582 14.5016 32.7355 14.9698 32.7875 15.4411C32.8999 16.4899 32.8434 17.5499 32.6203 18.5809C32.1129 20.9162 30.7324 22.9693 28.7614 24.3198L28.2855 24.6415C27.9897 24.8345 27.6938 25.0275 27.3594 25.2077C26.7805 25.5294 26.3946 25.6967 26.3946 25.6967C23.822 26.8161 23.4104 25.5809 23.3718 25.0275C23.3641 24.9462 23.3641 24.8644 23.3718 24.7831L23.6806 21.193L24.3494 13.4724V13.1893C24.4781 11.7996 24.6967 9.47056 23.3333 9.04593C21.9698 8.6213 21.0308 10.2941 18.8312 14.1544V14.2316C17.6499 16.451 16.2996 18.5761 14.7922 20.5882L14.4578 21.0257C14.1117 21.5737 13.6454 22.0358 13.0943 22.3768C12.9611 22.4659 12.8044 22.5134 12.6441 22.5134C12.4838 22.5134 12.3272 22.4659 12.1939 22.3768C10.9076 21.4761 11.5893 15.8143 11.7437 14.6562C11.9624 12.9062 12.0653 11.4393 10.9591 11.1434C10.2902 11.0147 9.20969 10.7187 5.38939 19.6489L6.9844 20.318C7.71759 18.6195 8.56654 16.7922 9.29973 15.4411C9.3366 15.3783 9.393 15.3292 9.46033 15.3013C9.52766 15.2734 9.60226 15.2683 9.67276 15.2867C9.74378 15.3117 9.80476 15.3591 9.84652 15.4218C9.88828 15.4844 9.90856 15.559 9.90429 15.6342C9.36405 20.6525 9.90429 23.5478 11.5379 24.2555C13.4159 25.0661 15.3968 22.5827 16.13 21.7592C17.6793 19.6686 19.0722 17.4665 20.2976 15.1709C20.8507 14.1801 21.5839 13.0092 22.0727 12.1084C22.1026 12.0635 22.1426 12.0261 22.1895 11.9993C22.2364 11.9725 22.2889 11.957 22.3428 11.954H22.4457C22.5123 11.9764 22.5697 12.02 22.6092 12.078C22.6486 12.1361 22.668 12.2056 22.6644 12.2757C22.6644 12.443 22.6644 12.6489 22.6644 12.8419L21.7254 21.1673L21.3395 24.4485C21.2608 25.2251 21.3218 26.0096 21.5196 26.7647C21.6175 27.216 21.8534 27.6257 22.1945 27.9369C22.5356 28.2482 22.965 28.4456 23.4233 28.5018H23.8478C24.313 28.4883 24.7731 28.4014 25.2113 28.2445C27.1597 27.5939 28.9825 26.6147 30.6008 25.3492C30.7806 25.218 30.9524 25.0762 31.1154 24.9246C31.3726 24.7059 31.6299 24.4742 31.8743 24.2297C33.3556 22.6833 34.3179 20.7131 34.627 18.5937C34.7343 17.96 34.7945 17.3191 34.807 16.6764C34.8209 15.7185 34.739 14.7615 34.5626 13.8198C33.7966 10.304 31.9672 7.10924 29.323 4.66958C26.6789 2.22992 23.3481 0.663603 19.7832 0.18339C16.2182 -0.296824 12.592 0.332345 9.39689 1.98543C6.20182 3.63852 3.59286 6.23539 1.92439 9.42329C0.255924 12.6112 -0.391169 16.2356 0.0710126 19.8042C0.533194 23.3728 2.08225 26.7125 4.50775 29.3698C6.93325 32.0271 10.1176 33.8731 13.6283 34.6571C17.139 35.4411 20.8059 35.125 24.1308 33.7518L23.2303 31.9246C21.4025 32.6379 19.4554 32.996 17.4935 32.9797Z" fill="#AAAC59"/>
<path id="Vector_2" d="M52.6605 23.0331V13.8327L48.8788 20.807H47.7597L43.9008 13.8327V23.0331H41.9199V10.2941H44.0809L48.3128 18.0147L52.5447 10.2941H54.7057V23.0331H52.6605Z" fill="#AAAC59"/>
<path id="Vector_3" d="M62.8993 23.1617C62.0516 23.1538 61.2165 22.956 60.4553 22.5827C59.7186 22.2249 59.0588 21.7266 58.513 21.1158C57.683 20.1917 57.1239 19.0566 56.8969 17.8353C56.67 16.614 56.7841 15.3537 57.2267 14.193C57.5281 13.431 57.9637 12.7293 58.513 12.1213C59.0587 11.5204 59.7191 11.0347 60.4553 10.693C61.2231 10.3299 62.0629 10.1452 62.9121 10.1526C63.7768 10.1431 64.6316 10.337 65.4076 10.7187C66.1437 11.0827 66.7997 11.5902 67.337 12.2114C68.1673 13.13 68.727 14.2607 68.9541 15.4781C69.1811 16.6956 69.0666 17.9521 68.6233 19.1084C68.3346 19.8729 67.8974 20.5727 67.337 21.1673C66.7892 21.7714 66.1239 22.2575 65.3818 22.5956C64.6099 22.9758 63.7597 23.1697 62.8993 23.1617ZM58.8217 16.7279C58.849 17.2961 58.9662 17.8564 59.169 18.3878C59.3478 18.9299 59.6222 19.4354 59.9794 19.8805C60.3313 20.3133 60.7694 20.6682 61.2657 20.9228C61.793 21.1846 62.375 21.3169 62.9636 21.3088C63.5635 21.3178 64.1561 21.1763 64.6872 20.897C65.1862 20.6353 65.6245 20.2714 65.9735 19.829C66.3263 19.3831 66.5964 18.8776 66.771 18.3364C66.9503 17.788 67.0414 17.2147 67.0412 16.6378C67.0457 16.0428 66.95 15.4512 66.7582 14.8878C66.5751 14.349 66.2962 13.8477 65.9349 13.4081C65.577 12.9847 65.1401 12.635 64.6486 12.3787C64.1201 12.1196 63.5393 11.9849 62.9507 11.9849C62.3621 11.9849 61.7814 12.1196 61.2528 12.3787C60.7542 12.6353 60.3158 12.995 59.9665 13.4338C59.6084 13.881 59.3378 14.3918 59.169 14.9393C58.9581 15.4818 58.8406 16.0561 58.8217 16.6378V16.7279Z" fill="#AAAC59"/>
<path id="Vector_4" d="M81.8726 23.0331V13.8327L78.078 20.807H76.9589L73.1 13.8327V23.0331H71.1191V10.2941H73.3187L77.512 18.0147L81.744 10.2941H83.905V23.0331H81.8726Z" fill="#AAAC59"/>
<path id="Vector_5" d="M95.5587 21.2574V23.0331H86.7861V10.2941H95.4043V12.0313H88.7542V15.6728H94.4653V17.3456H88.7542V21.2059L95.5587 21.2574Z" fill="#AAAC59"/>
<path id="Vector_6" d="M99.6748 14.0257V23.0331H97.6553V10.2941H99.2374L106.544 19.5202V10.2941H108.589V23.0331H106.904L99.6748 14.0257Z" fill="#AAAC59"/>
<path id="Vector_7" d="M120.912 12.0313H116.59V23.0331H114.558V12.0313H110.287V10.2941H120.912V12.0313Z" fill="#AAAC59"/>
<path id="Vector_8" d="M127.884 21.3088C128.467 21.3335 129.046 21.1954 129.556 20.9099C129.995 20.6608 130.366 20.3072 130.636 19.8805C130.918 19.4326 131.11 18.9345 131.202 18.4136C131.321 17.8596 131.382 17.2946 131.382 16.728V10.2941H133.415V16.728C133.42 17.5657 133.316 18.4005 133.106 19.2114C132.92 19.9454 132.592 20.6359 132.141 21.2445C131.685 21.8342 131.094 22.3063 130.418 22.6213C129.609 22.981 128.729 23.1526 127.845 23.1232C126.958 23.152 126.077 22.9713 125.272 22.5956C124.598 22.2655 124.015 21.7751 123.575 21.1673C123.132 20.5573 122.813 19.8667 122.636 19.1342C122.451 18.3457 122.365 17.5376 122.378 16.728V10.2941H124.398V16.728C124.394 17.3027 124.45 17.8762 124.565 18.4393C124.67 18.9547 124.866 19.4471 125.144 19.8934C125.414 20.3201 125.785 20.6736 126.224 20.9228C126.734 21.1949 127.306 21.328 127.884 21.3088Z" fill="#AAAC59"/>
<path id="Vector_9" d="M146.843 23.0331V13.8327L142.985 20.807H141.866L138.007 13.8327V23.0331H136V10.2941H138.161L142.496 18.0147L146.728 10.2941H148.889V23.0331H146.843Z" fill="#AAAC59"/>
<path id="Vector_10" d="M152.606 23.0331V10.2941H153.893V21.875H161.276V22.9816L152.606 23.0331Z" fill="#AAAC59"/>
<path id="Vector_11" d="M167.308 23.1617C166.463 23.1708 165.627 22.9859 164.864 22.6213C164.142 22.2592 163.495 21.7612 162.961 21.1544C162.408 20.5439 161.972 19.8374 161.674 19.0698C161.092 17.5098 161.092 15.7916 161.674 14.2316C161.975 13.4693 162.411 12.7675 162.961 12.1599C163.495 11.5628 164.142 11.0774 164.864 10.7316C165.616 10.3672 166.441 10.1779 167.276 10.1779C168.112 10.1779 168.936 10.3672 169.688 10.7316C170.408 11.1032 171.05 11.6099 171.579 12.2242C172.11 12.8367 172.52 13.544 172.788 14.3088C173.388 15.8567 173.388 17.5733 172.788 19.1213C172.496 19.884 172.059 20.5831 171.502 21.1801C170.977 21.7824 170.333 22.2688 169.611 22.6084C168.895 22.9634 168.108 23.1525 167.308 23.1617ZM162.575 16.7279C162.568 17.4115 162.681 18.091 162.909 18.7353C163.126 19.3613 163.458 19.9416 163.887 20.4467C164.299 20.9419 164.806 21.349 165.379 21.6433C165.978 21.942 166.64 22.0921 167.308 22.0808C167.988 22.0909 168.66 21.9317 169.264 21.6176C169.846 21.2935 170.358 20.856 170.769 20.3309C171.596 19.2871 172.049 17.9956 172.055 16.6636C172.057 15.9793 171.939 15.3 171.708 14.6562C171.481 14.0357 171.146 13.4605 170.717 12.9577C170.304 12.4671 169.797 12.0645 169.225 11.7739C168.635 11.4769 167.982 11.3268 167.321 11.3364C166.637 11.3279 165.962 11.4869 165.353 11.7996C164.776 12.0921 164.267 12.5044 163.861 13.0092C163.449 13.5196 163.132 14.099 162.922 14.7206C162.696 15.3348 162.579 15.9835 162.575 16.6378V16.7279Z" fill="#AAAC59"/>
<path id="Vector_12" d="M179.053 10.2941H180.082L185.394 23.0846H184.108L182.449 19.0827H176.699L175.065 23.0846H173.65L179.053 10.2941ZM182.14 18.0147L179.567 11.6838L176.995 18.0147H182.14Z" fill="#AAAC59"/>
<path id="Vector_13" d="M188.378 12.5846V23.0331H187.092V10.2941H188.057L196.52 20.9485V10.2941H197.807V23.0331H196.713L188.378 12.5846Z" fill="#AAAC59"/>
<path id="Vector_14" d="M208.149 12.6489C207.754 12.2091 207.26 11.8695 206.708 11.6581C206.056 11.3897 205.356 11.2583 204.65 11.2721C203.782 11.2031 202.916 11.4298 202.194 11.9155C201.936 12.1231 201.73 12.3886 201.594 12.6903C201.458 12.9921 201.394 13.3218 201.409 13.6526C201.397 13.9796 201.472 14.3038 201.628 14.5919C201.775 14.86 201.993 15.0825 202.258 15.2353C202.606 15.438 202.978 15.5978 203.364 15.7114C203.814 15.8401 204.355 15.9688 204.959 16.0974C205.585 16.2263 206.203 16.3895 206.811 16.5864C207.305 16.7455 207.773 16.9752 208.201 17.2684C208.57 17.5187 208.875 17.854 209.088 18.2463C209.308 18.6939 209.414 19.189 209.397 19.6875C209.41 20.2188 209.29 20.7451 209.05 21.2188C208.822 21.6494 208.496 22.0198 208.098 22.2996C207.651 22.6003 207.155 22.8182 206.631 22.943C206.024 23.0815 205.402 23.1505 204.779 23.1489C202.891 23.19 201.057 22.5246 199.634 21.2831L200.264 20.2666C200.516 20.5194 200.792 20.7477 201.087 20.9485C201.423 21.1728 201.781 21.3625 202.155 21.5147C202.569 21.6857 203 21.8108 203.441 21.8879C203.903 21.9821 204.372 22.0296 204.843 22.0294C205.673 22.0785 206.5 21.8863 207.223 21.4761C207.504 21.3038 207.732 21.0583 207.884 20.7658C208.036 20.4734 208.105 20.1451 208.085 19.8162C208.099 19.4654 208.014 19.1177 207.84 18.8125C207.656 18.5215 207.404 18.2789 207.107 18.1048C206.731 17.8885 206.329 17.72 205.911 17.603C205.422 17.4485 204.869 17.307 204.226 17.1655C203.583 17.0239 202.94 16.8438 202.464 16.6765C202.004 16.5359 201.57 16.3231 201.177 16.046C200.84 15.816 200.569 15.5008 200.393 15.1324C200.207 14.7297 200.119 14.2888 200.135 13.8456C200.124 13.3007 200.234 12.76 200.457 12.2629C200.682 11.8129 201.008 11.421 201.409 11.1177C201.844 10.7985 202.331 10.5589 202.85 10.4099C203.449 10.2445 204.068 10.1622 204.689 10.1655C205.465 10.1528 206.237 10.2836 206.966 10.5515C207.617 10.7959 208.225 11.1435 208.767 11.5809L208.149 12.6489Z" fill="#AAAC59"/>
</g>
</g>
</svg>
